<svg width="100" height="100" viewBox="0 0 100 100" xmlns="http://www.w3.org/2000/svg">
  <ellipse cx="54" cy="88" rx="15" ry="4.5" fill="#00000024"/>
  
  <path d="M 39 34
           C 39 45, 39.879999999999995 49.5, 50 49.5
           C 60.120000000000005 49.5, 61 45, 61 34
           Z"
        fill="#d8b56d" stroke="#5c4325" stroke-width="2" stroke-linejoin="round"/>
  <path d="M 50 34
           C 56.38 34.9, 60.34 38.05, 61 48.4
           C 60.78 53.55, 55.5 54.675, 50 54.225
           Z"
        fill="#c5944d" stroke="#5c4325" stroke-width="2" stroke-linejoin="round"/>
  <ellipse cx="50" cy="34" rx="11" ry="4.5" fill="#f7e0a8" stroke="#5c4325" stroke-width="2"/>
  <path d="M 39 54 A 11 4.5 0 0 0 61 54"
        fill="none" stroke="#7a5b34" stroke-width="2" stroke-linecap="round"/>
  <ellipse cx="50" cy="34" rx="4.62" ry="1.89" fill="#d2b48c" stroke="#5c4325" stroke-width="1.5"/>
  <path d="M 47.58 35
           L 48.9 38.4
           C 50.22 39.6, 51.54 39.6, 52.42 36"
        fill="none" stroke="#8d6432" stroke-width="1.5" stroke-linecap="round"/>
</svg>